<svg width="76" height="66" viewBox="0 0 76 66" fill="none" xmlns="http://www.w3.org/2000/svg">
<g clip-path="url(#clip0_786_557)">
<mask id="mask0_786_557" style="mask-type:luminance" maskUnits="userSpaceOnUse" x="19" y="4" width="256" height="34">
<path d="M274.091 4.04883H19V37.9518H274.091V4.04883Z" fill="white"/>
</mask>
<g mask="url(#mask0_786_557)">
<path d="M31.6641 32.1165L26.8164 35.3851L24.8073 33.9803L26.8863 28.0052L26.3966 27.3683L19.7596 27.3215L19 25.0644L24.3775 21.3744V20.5877L19.05 16.8508L19.8396 14.5938H25.7869L31.6641 32.1165Z" fill="#98C1D9"/>
<path d="M33.3711 9.37779L35.2703 4.04883H37.7691L39.7881 10.0334L40.5877 10.2675L46.0053 6.61497L48.0143 8.01042L45.9353 13.9856L46.425 14.6131L53.0719 14.6693L53.8216 16.9264L49.0039 20.2324L33.3711 9.37779Z" fill="#F71735"/>
<path d="M27.0134 6.56641L24.9844 7.95249L35.0597 37.9314H37.5585L39.9275 31.3381L45.8247 35.4121L47.8538 34.026L45.6848 27.4233L53.0014 27.3859L53.791 25.1381L27.0134 6.56641Z" fill="#F9F6F3"/>
</g>
</g>
<g clip-path="url(#clip1_786_557)">
<mask id="mask1_786_557" style="mask-type:luminance" maskUnits="userSpaceOnUse" x="-15" y="54" width="91" height="12">
<path d="M75.0271 54.0176H-14.8164V65.9833H75.0271V54.0176Z" fill="white"/>
</mask>
<g mask="url(#mask1_786_557)">
<path d="M1.73438 59.9796C1.73438 57.2824 3.13904 55.8379 5.92719 55.8379C8.35976 55.8379 9.76437 56.9618 9.8876 59.0739H7.89506C7.82112 57.8674 7.19801 57.3055 5.92719 57.3055C4.43453 57.3055 3.75158 58.1782 3.75158 59.9796C3.75158 61.7811 4.43453 62.6538 5.92719 62.6538C7.21211 62.6538 7.85983 62.0555 7.90562 60.8622H9.89816C9.84888 62.9975 8.43017 64.1214 5.92719 64.1214C3.13904 64.1214 1.73438 62.6868 1.73438 59.9796ZM12.4997 63.9958H10.6797V55.9701H12.4997V63.9958ZM15.5167 55.9701V57.484H13.6826V55.9701H15.5167ZM15.5061 58.2972V63.9958H13.6861V58.2972H15.5061ZM22.8848 60.2441H21.1141C21.0648 59.3615 20.6494 58.9252 19.7095 58.9252C18.6322 58.9252 18.157 59.5103 18.157 60.8523C18.157 62.1943 18.6322 62.7794 19.7095 62.7794C20.6494 62.7794 21.0648 62.3563 21.1141 61.4142H22.8848C22.8496 63.1694 21.7619 64.1214 19.72 64.1214C17.4952 64.1214 16.2841 62.9843 16.2841 60.8523C16.2841 58.7203 17.4952 57.5832 19.72 57.5832C21.7372 57.5832 22.8356 58.5583 22.8848 60.2441ZM23.6347 63.9958V55.9701H25.4195V60.2672L27.9366 57.7187H30.003L27.9401 59.778L30.0664 63.9958H28.2464L26.6819 61.0222L25.423 62.2406V63.9958H23.6382H23.6347ZM30.6684 63.9958V55.9635H36.7799V57.4443H32.6257V59.5103H36.6848V60.9911H32.6257V63.9991H30.6719L30.6684 63.9958ZM41.631 61.6092V57.7187H43.4402V63.9958H41.9828L41.631 63.1C41.2156 63.7413 40.5182 64.1214 39.5293 64.1214C38.1493 64.1214 37.3783 63.5463 37.3783 62.1579V57.7154H39.1875V61.8472C39.1875 62.4786 39.5536 62.7893 40.3246 62.7893C41.0956 62.7893 41.631 62.386 41.631 61.6059V61.6092ZM44.6232 63.9958V57.7187H46.0911L46.4434 58.7302C46.8587 58.0063 47.5805 57.5832 48.6541 57.5832C50.1573 57.5832 50.8404 58.3401 50.8404 59.7516V63.9991H49.0307V60.0524C49.0307 59.2822 48.6751 58.9384 47.8338 58.9384C46.929 58.9384 46.4395 59.3979 46.4395 60.2937V63.9991H44.6198L44.6232 63.9958ZM51.9493 63.9958V57.7187H53.4172L53.769 58.7302C54.1844 58.0063 54.9061 57.5832 55.9802 57.5832C57.483 57.5832 58.166 58.3401 58.166 59.7516V63.9991H56.3568V60.0524C56.3568 59.2822 56.0012 58.9384 55.1595 58.9384C54.2551 58.9384 53.7657 59.3979 53.7657 60.2937V63.9991H51.9455L51.9493 63.9958ZM62.292 64.1214C60.0321 64.1214 58.8701 62.9843 58.8701 60.8523C58.8701 58.7203 60.0426 57.5832 62.292 57.5832C64.5414 57.5832 65.5203 58.6839 65.5203 60.5912C65.5203 60.8424 65.4955 61.0143 65.4711 61.2324H60.6444C60.729 62.3695 61.2079 62.8157 62.3556 62.8157C63.2704 62.8157 63.7355 62.5414 63.7742 61.9332H65.4744C65.3511 63.3677 64.2632 64.1247 62.2953 64.1247L62.292 64.1214ZM62.3059 58.8095C61.292 58.8095 60.8136 59.1995 60.6692 60.1747H63.834C63.7847 59.2789 63.3832 58.8095 62.3059 58.8095ZM68.1464 63.9958H66.3262V55.9701H68.1464V63.9958ZM71.9942 58.7732C71.0893 58.7732 70.7337 58.9913 70.7337 59.4144C70.7337 59.8375 70.9522 59.9763 71.7126 60.0788L72.6667 60.1945C74.4023 60.3994 75.0251 60.9283 75.0251 62.1117C75.0251 63.3975 74.071 64.1214 71.9693 64.1214C69.8676 64.1214 68.8643 63.5132 68.8643 61.9299H70.5507C70.5507 62.6306 70.9909 62.9281 71.9693 62.9281C72.8742 62.9281 73.2895 62.7232 73.2895 62.2274C73.2895 61.791 73.0467 61.6423 72.2619 61.5398L71.2337 61.4142C69.7409 61.2192 69.0087 60.6341 69.0087 59.5665C69.0087 58.317 70.0368 57.5799 71.9908 57.5799C73.9444 57.5799 74.8492 58.2211 74.8492 59.6227H73.2226C73.2226 59.0244 72.8426 58.7732 71.987 58.7732H71.9942Z" fill="#F9F6F3"/>
</g>
</g>
<defs>
<clipPath id="clip0_786_557">
<rect width="38" height="34" fill="white" transform="translate(19 4)"/>
</clipPath>
<clipPath id="clip1_786_557">
<rect width="76" height="12" fill="white" transform="translate(0 54)"/>
</clipPath>
</defs>
</svg>
